<?xml version="1.0" encoding="UTF-8"?>
<svg version="1.1" xmlns="http://www.w3.org/2000/svg" width="300" height="115">
<path d="M0 0 C10.64255801 7.7642702 14.84251208 17.00023411 17.1328125 29.85546875 C17.26300781 30.71398438 17.39320313 31.5725 17.52734375 32.45703125 C19.64166591 31.44284502 19.64166591 31.44284502 21.52734375 29.45703125 C22.08312342 26.07577417 22.08312342 26.07577417 22.02734375 22.26953125 C22.31384126 14.10825026 23.75162005 8.84487502 29.71484375 3.14453125 C37.6868131 -3.02785852 46.72846072 -3.50643434 56.52734375 -2.54296875 C67.41225234 -0.18340147 75.36464182 5.87676757 81.3359375 15.1484375 C85.67289724 23.55218571 86.06528496 34.13050036 83.83984375 43.28515625 C82.90441677 45.51459056 81.85124808 47.4361181 80.52734375 49.45703125 C80.10324219 50.15054688 79.67914063 50.8440625 79.2421875 51.55859375 C74.3948813 58.76879294 67.36439651 63.48321061 59.078125 66 C53.9097058 66.92604142 48.75839666 66.62222239 43.52734375 66.45703125 C43.19734375 72.06703125 42.86734375 77.67703125 42.52734375 83.45703125 C35.92734375 83.45703125 29.32734375 83.45703125 22.52734375 83.45703125 C22.51316406 81.37261719 22.49898438 79.28820312 22.484375 77.140625 C22.45368121 75.10164687 22.41461244 73.06298716 22.37475586 71.02416992 C22.35168848 69.61705954 22.33720671 68.20977925 22.33178711 66.80249023 C22.28691984 55.65825868 22.28691984 55.65825868 16.52734375 46.45703125 C15.82059746 45.14450243 15.12771103 43.82150234 14.52734375 42.45703125 C14.01171875 43.61203125 13.49609375 44.76703125 12.96484375 45.95703125 C8.12690594 55.54803078 0.83289995 61.81146141 -9.28515625 65.26953125 C-19.10102846 67.90012487 -28.64441478 66.94302821 -37.69921875 62.3203125 C-41.85530516 59.85312263 -45.22491525 57.06563236 -48.47265625 53.45703125 C-49.49359375 52.34328125 -49.49359375 52.34328125 -50.53515625 51.20703125 C-56.53233503 42.69490653 -58.50855339 33.63278754 -56.84765625 23.33203125 C-54.5967535 13.86323367 -48.803912 5.17041542 -40.72265625 -0.29296875 C-27.80189008 -7.69371005 -12.7260087 -7.94119026 0 0 Z M-33.84765625 22.08203125 C-36.04800638 26.65198922 -36.28355158 30.47002497 -35.47265625 35.45703125 C-32.85944786 40.59011916 -29.93328384 43.63682205 -24.47265625 45.45703125 C-17.67781098 45.90259487 -13.8382519 44.88773922 -8.22265625 40.83203125 C-4.83611308 36.23600838 -4.24801559 31.3504311 -4.91015625 25.76953125 C-7.16513178 20.98898313 -10.74798367 17.81936754 -15.47265625 15.45703125 C-23.64046654 14.56092257 -28.21618433 15.85777281 -33.84765625 22.08203125 Z M44.65234375 18.76953125 C42.50102229 21.99651344 42.40797236 24.8057807 42.4296875 28.5625 C42.43291016 29.54541016 42.43613281 30.52832031 42.43945312 31.54101562 C42.44783203 32.56517578 42.45621094 33.58933594 42.46484375 34.64453125 C42.46935547 35.68029297 42.47386719 36.71605469 42.47851562 37.78320312 C42.49030365 40.34120391 42.5067586 42.89908858 42.52734375 45.45703125 C46.89206457 46.91193819 51.16205969 47.3609913 55.5 45.703125 C60.29176632 43.10885661 62.82332299 40.56909354 64.52734375 35.45703125 C64.92349029 30.20808958 64.39291692 26.90361031 61.52734375 22.45703125 C57.76957543 18.98109556 55.180155 17.5750892 50.02734375 17.20703125 C46.62596111 17.1488368 46.62596111 17.1488368 44.65234375 18.76953125 Z " fill="#1B3363" transform="translate(215.47265625,31.54296875)"/>
<path d="M0 0 C3.57059651 2.67794738 5.2079765 4.66695663 6 9 C6.07708723 10.36800819 6.10803609 11.73923592 6.09765625 13.109375 C6.09443359 13.86347656 6.09121094 14.61757812 6.08789062 15.39453125 C6.07951172 16.17183594 6.07113281 16.94914062 6.0625 17.75 C6.05798828 18.54277344 6.05347656 19.33554687 6.04882812 20.15234375 C6.03708565 22.10159508 6.01915146 24.05080738 6 26 C6.61746094 25.97679688 7.23492187 25.95359375 7.87109375 25.9296875 C18.37992089 25.70575511 26.82355331 27.27071687 34.7265625 34.6015625 C42.12395067 42.58199605 43.15722559 51.95485482 43.1328125 62.421875 C43.13376923 63.32246643 43.13472595 64.22305786 43.13571167 65.15093994 C43.13639029 67.04707916 43.13455824 68.94322075 43.13037109 70.83935547 C43.1249933 73.75363306 43.13033964 76.66775828 43.13671875 79.58203125 C43.1360584 81.42447951 43.13477814 83.26692767 43.1328125 85.109375 C43.13483673 85.98535339 43.13686096 86.86133179 43.13894653 87.76385498 C43.11496685 93.88503315 43.11496685 93.88503315 42 95 C39.00981839 95.12667764 36.05305892 95.18520838 33.0625 95.1875 C32.22525391 95.19974609 31.38800781 95.21199219 30.52539062 95.22460938 C29.72423828 95.22654297 28.92308594 95.22847656 28.09765625 95.23046875 C27.36039307 95.23457764 26.62312988 95.23868652 25.86352539 95.24291992 C24 95 24 95 22 93 C21.80262943 89.96471989 21.72309854 87.01298404 21.7265625 83.9765625 C21.7062719 82.13280645 21.68542108 80.28905649 21.6640625 78.4453125 C21.64145713 75.5331509 21.62499242 72.62122968 21.61914062 69.70898438 C21.60962508 66.90189947 21.57585612 64.09590379 21.5390625 61.2890625 C21.54410797 60.4191568 21.54915344 59.5492511 21.55435181 58.65298462 C21.49607175 55.07577486 21.32278791 52.61876463 19.65380859 49.41943359 C15.32701025 47.10517365 10.80301125 47.70188206 6 48 C6.00444122 48.5593222 6.00888245 49.11864441 6.01345825 49.69491577 C6.05761149 55.50198824 6.08783294 61.30901325 6.10986328 67.11621094 C6.11993789 69.28517594 6.13359798 71.45412731 6.15087891 73.62304688 C6.17506323 76.73571126 6.18646832 79.84819651 6.1953125 82.9609375 C6.20563507 83.934935 6.21595764 84.9089325 6.22659302 85.91244507 C6.22674408 86.81322784 6.22689514 87.71401062 6.22705078 88.64208984 C6.231492 89.43706879 6.23593323 90.23204773 6.24050903 91.05111694 C6 93 6 93 4 95 C2.13647461 95.24291992 2.13647461 95.24291992 -0.09765625 95.23046875 C-0.89880859 95.22853516 -1.69996094 95.22660156 -2.52539062 95.22460938 C-3.36263672 95.21236328 -4.19988281 95.20011719 -5.0625 95.1875 C-5.90361328 95.18685547 -6.74472656 95.18621094 -7.61132812 95.18554688 C-13.85976816 95.14023184 -13.85976816 95.14023184 -15 94 C-15.09758649 91.84023699 -15.13205717 89.67757458 -15.140625 87.515625 C-15.15896194 86.17446231 -15.17853307 84.83331602 -15.19921875 83.4921875 C-15.22812892 81.37439527 -15.24999823 79.25765044 -15.25048828 77.13964844 C-15.2538363 75.09735872 -15.28846676 73.05749192 -15.328125 71.015625 C-15.34214355 69.17919434 -15.34214355 69.17919434 -15.35644531 67.30566406 C-16.16576476 63.14853763 -17.87606693 61.7489023 -21 59 C-22.37014325 54.25981497 -21.17856145 49.83325819 -19.0625 45.5 C-17.28 42.28 -17.28 42.28 -16 41 C-15.88935414 38.55112711 -15.83839384 36.12570581 -15.82421875 33.67578125 C-15.80100559 32.15688741 -15.77688767 30.63800718 -15.75195312 29.11914062 C-15.71693752 26.72069403 -15.68755758 24.32274247 -15.67407227 21.92407227 C-15.6585197 19.61152604 -15.61825015 17.3004384 -15.57421875 14.98828125 C-15.57612717 14.27867752 -15.57803558 13.56907379 -15.58000183 12.83796692 C-15.45716454 7.79496173 -14.16956814 4.8888975 -11 1 C-7.52200335 -0.73899832 -3.794318 -0.58979036 0 0 Z " fill="#1A3363" transform="translate(111,0)"/>
<path d="M0 0 C2.64627737 1.97000649 4.50932914 4.01865827 6 7 C6.43023798 10.87214182 6.31669086 12.52496371 4.125 15.8125 C2 18 2 18 0 19 C-4.17401695 18.89147556 -8.0893307 18.34150099 -12 16.875 C-16.16387904 15.66053528 -19.77195742 16.30472189 -24 17 C-24.33 18.32 -24.66 19.64 -25 21 C-23.40671875 21.14695312 -23.40671875 21.14695312 -21.78125 21.296875 C-11.77286374 22.31226999 -4.27369427 23.24584359 2.875 30.875 C6.96363173 35.92292346 8.44254062 40.34091706 8.25390625 46.91796875 C7.54706564 52.71406174 5.18665185 57.9235232 1 62 C-6.9434617 67.17350919 -13.5197187 68.87415581 -23 68 C-31.36028111 66.01754852 -37.95828654 62.04171346 -44 56 C-43.88673688 52.59078006 -43.22454346 51.24200795 -40.890625 48.7265625 C-40.01921875 48.03304687 -39.1478125 47.33953125 -38.25 46.625 C-37.38890625 45.91601562 -36.5278125 45.20703125 -35.640625 44.4765625 C-33 43 -33 43 -30.3203125 43.1796875 C-28 44 -28 44 -25.625 45.5 C-21.7531016 47.71251337 -17.96282168 48.35230133 -13.5625 47.5625 C-13.046875 47.376875 -12.53125 47.19125 -12 47 C-11.67 45.68 -11.34 44.36 -11 43 C-12.03898437 42.91363281 -13.07796875 42.82726562 -14.1484375 42.73828125 C-32.74828316 40.96761167 -32.74828316 40.96761167 -38.90234375 33.77734375 C-43.37994374 27.29799318 -44.94474306 21.85803933 -44 14 C-41.91112537 7.04048112 -38.51867214 2.93456747 -32.37890625 -0.84375 C-21.85511036 -5.9587641 -10.32845664 -5.40765996 0 0 Z " fill="#1A3363" transform="translate(80,30)"/>
<path d="M0 0 C3.72567751 2.18188848 6.25020615 4.72861043 8.4375 8.4375 C9.44719797 13.03723519 9.47913915 16.66905792 7.875 21.125 C5.07984174 25.41090933 1.95224283 28.34925239 -3 30 C-8.98131567 30.5864035 -13.13548024 29.37667315 -18 26 C-21.32270516 22.51115958 -22.27169069 19.76424491 -22.5 15.0625 C-22.26712016 10.22296588 -21.35677491 6.58435287 -18 3 C-12.52512629 -1.36476107 -6.63260249 -2.04909671 0 0 Z " fill="#FD5A1F" transform="translate(22,65)"/>
</svg>
