<?xml version="1.0" encoding="UTF-8"?>
<svg version="1.1" xmlns="http://www.w3.org/2000/svg" width="195" height="195">
<path d="M0 0 C64.35 0 128.7 0 195 0 C195 64.35 195 128.7 195 195 C130.65 195 66.3 195 0 195 C0 130.65 0 66.3 0 0 Z " fill="#1C2E6B" transform="translate(0,0)"/>
<path d="M0 0 C0.84175781 0.60457031 1.68351562 1.20914063 2.55078125 1.83203125 C4.68798041 3.45533814 4.68798041 3.45533814 7.6875 3.1875 C9.47650211 2.14771374 11.22209399 1.03218031 12.9375 -0.125 C25.53065551 -8.3221196 39.41960773 -11.0932003 54.2578125 -8.08984375 C57.48364128 -7.14802376 60.56893883 -6.06239952 63.6875 -4.8125 C64.55890625 -4.47347656 65.4303125 -4.13445313 66.328125 -3.78515625 C79.58977498 2.07415766 88.44482344 13.32039931 94.0625 26.375 C99.38007441 40.87334392 97.18557403 56.42297423 91.16015625 70.265625 C84.52984065 83.42073394 73.04863166 91.71283919 59.6875 97.1875 C47.09408487 101.0465649 31.5818247 101.17794592 19.6875 95.1875 C16.73498767 93.44266045 13.87866742 91.63284998 11.0625 89.67578125 C8.07694256 87.77761822 8.07694256 87.77761822 4.6875 87.1875 C2.35716372 88.47028357 2.35716372 88.47028357 0.0625 90.375 C-12.30359977 99.51278168 -26.37359537 100.52290307 -41.3125 99.1875 C-50.4190696 97.55581945 -58.28207684 93.04817533 -65.3125 87.1875 C-66.08207031 86.56488281 -66.85164063 85.94226563 -67.64453125 85.30078125 C-77.33895704 76.63029822 -83.9203367 62.95922859 -84.6484375 49.92578125 C-84.98249834 33.61704038 -81.02023238 19.08405909 -69.5625 6.875 C-50.07761286 -11.28567151 -22.42941608 -14.50101539 0 0 Z " fill="#DD0923" transform="translate(91.3125,51.8125)"/>
<path d="M0 0 C0.87140625 0.33902344 1.7428125 0.67804687 2.640625 1.02734375 C15.90227498 6.88665766 24.75732344 18.13289931 30.375 31.1875 C35.69257441 45.68584392 33.49807403 61.23547423 27.47265625 75.078125 C20.84234065 88.23323394 9.36113166 96.52533919 -4 102 C-16.63493434 105.87178785 -32.05331892 105.9473318 -44 100 C-55.05061603 93.99392748 -55.05061603 93.99392748 -57 89 C-55.68 87.68 -54.36 86.36 -53 85 C-53.75925781 84.98582031 -54.51851562 84.97164063 -55.30078125 84.95703125 C-56.29464844 84.90933594 -57.28851563 84.86164063 -58.3125 84.8125 C-59.29863281 84.77769531 -60.28476563 84.74289063 -61.30078125 84.70703125 C-64 84 -64 84 -65.85546875 81.44921875 C-66.23316406 80.64097656 -66.61085938 79.83273438 -67 79 C-66.44014404 78.99589111 -65.88028809 78.99178223 -65.3034668 78.98754883 C-62.7637413 78.95462695 -60.22642019 78.88399306 -57.6875 78.8125 C-56.80642578 78.80669922 -55.92535156 78.80089844 -55.01757812 78.79492188 C-53.74624023 78.75141602 -53.74624023 78.75141602 -52.44921875 78.70703125 C-51.66893311 78.6913208 -50.88864746 78.67561035 -50.0847168 78.65942383 C-47.26091655 78.01939956 -47.26091655 78.01939956 -45 73 C-53.58 73 -62.16 73 -71 73 C-71.495 70.525 -71.495 70.525 -72 68 C-62.1 68 -52.2 68 -42 68 C-41.67 65.69 -41.34 63.38 -41 61 C-39.68 61.66 -38.36 62.32 -37 63 C-37.73669922 62.21882813 -37.73669922 62.21882813 -38.48828125 61.421875 C-40.49150262 58.21257978 -40.3000233 56.00077664 -40.1875 52.25 C-40.14689453 50.49429688 -40.14689453 50.49429688 -40.10546875 48.703125 C-40.07066406 47.81109375 -40.03585938 46.9190625 -40 46 C-40.495 46.99 -40.495 46.99 -41 48 C-43.0625 48.625 -43.0625 48.625 -45 49 C-45.19916016 50.37285156 -45.19916016 50.37285156 -45.40234375 51.7734375 C-45.57894531 52.96195313 -45.75554687 54.15046875 -45.9375 55.375 C-46.19853516 57.15003906 -46.19853516 57.15003906 -46.46484375 58.9609375 C-47 62 -47 62 -48 64 C-49.65 64 -51.3 64 -53 64 C-52.52759949 60.51987918 -52.0459514 57.04110146 -51.5625 53.5625 C-51.42779297 52.56927734 -51.29308594 51.57605469 -51.15429688 50.55273438 C-51.02216797 49.60849609 -50.89003906 48.66425781 -50.75390625 47.69140625 C-50.63345947 46.81685791 -50.5130127 45.94230957 -50.38891602 45.04125977 C-50 43 -50 43 -49 42 C-47.48071962 41.92820036 -45.95832518 41.91607993 -44.4375 41.9375 C-43.61121094 41.94652344 -42.78492187 41.95554688 -41.93359375 41.96484375 C-41.29550781 41.97644531 -40.65742187 41.98804688 -40 42 C-40.33 41.01 -40.66 40.02 -41 39 C-51.89 38.67 -62.78 38.34 -74 38 C-73.67 36.35 -73.34 34.7 -73 33 C-63.1 33 -53.2 33 -43 33 C-43.66 31.02 -44.32 29.04 -45 27 C-52.92 26.67 -60.84 26.34 -69 26 C-68 22 -68 22 -67 21 C-65.65984779 20.84417697 -64.31241097 20.74955858 -62.96484375 20.68359375 C-62.15595703 20.64169922 -61.34707031 20.59980469 -60.51367188 20.55664062 C-59.66353516 20.51732422 -58.81339844 20.47800781 -57.9375 20.4375 C-57.08349609 20.39431641 -56.22949219 20.35113281 -55.34960938 20.30664062 C-53.23327963 20.20023298 -51.11666187 20.09958269 -49 20 C-50.15866671 17.93902794 -50.15866671 17.93902794 -52 16 C-54.49407252 15.3049261 -54.49407252 15.3049261 -57.1875 15.25 C-58.08855469 15.19328125 -58.98960938 15.1365625 -59.91796875 15.078125 C-60.60503906 15.05234375 -61.29210937 15.0265625 -62 15 C-54.66219129 5.28236144 -43.73061404 -1.26046534 -31.76953125 -3.64453125 C-20.50430321 -5.09042088 -10.61023478 -4.25251473 0 0 Z " fill="#E98213" transform="translate(155,47)"/>
<path d="M0 0 C64.35 0 128.7 0 195 0 C195 12.21 195 24.42 195 37 C130.65 37 66.3 37 0 37 C0 24.79 0 12.58 0 0 Z " fill="#FFFFFF" transform="translate(0,158)"/>
<path d="M0 0 C64.35 0 128.7 0 195 0 C195 11.88 195 23.76 195 36 C130.65 36 66.3 36 0 36 C0 24.12 0 12.24 0 0 Z " fill="#FFFFFF" transform="translate(0,0)"/>
<path d="M0 0 C0.33 0 0.66 0 1 0 C1.33 5.28 1.66 10.56 2 16 C3.32 16 4.64 16 6 16 C6.12246094 15.29488281 6.24492187 14.58976562 6.37109375 13.86328125 C7.03405201 10.84496817 7.98175575 8.08110558 9.0625 5.1875 C9.42472656 4.21167969 9.78695313 3.23585938 10.16015625 2.23046875 C10.43730469 1.49441406 10.71445312 0.75835937 11 0 C12.26823485 3.65393537 11.75715321 6.49070026 11.0625 10.25 C10.86785156 11.32765625 10.67320313 12.4053125 10.47265625 13.515625 C10.31667969 14.33546875 10.16070313 15.1553125 10 16 C11.65 16 13.3 16 15 16 C15 14.35 15 12.7 15 11 C15.99 10.67 16.98 10.34 18 10 C18 11.32 18 12.64 18 14 C18.556875 14.06058594 19.11375 14.12117188 19.6875 14.18359375 C20.8321875 14.30927734 20.8321875 14.30927734 22 14.4375 C22.82757813 14.52773437 23.65515625 14.61796875 24.5078125 14.7109375 C26.63484607 14.95764672 28.7559167 15.25489113 30.875 15.5625 C36.96157183 16.332488 44.13051769 17.08868965 50 15 C50.33 14.34 50.66 13.68 51 13 C51.66 13.99 52.32 14.98 53 16 C55.20725073 16.36362818 55.20725073 16.36362818 57.625 16.1875 C58.44226563 16.16042969 59.25953125 16.13335937 60.1015625 16.10546875 C61.04128906 16.05326172 61.04128906 16.05326172 62 16 C62 14.68 62 13.36 62 12 C60.68 11.67 59.36 11.34 58 11 C58.875 3.375 58.875 3.375 60 0 C61.32 0.33 62.64 0.66 64 1 C63.96519531 1.83144531 63.93039063 2.66289063 63.89453125 3.51953125 C63.85392578 5.14955078 63.85392578 5.14955078 63.8125 6.8125 C63.77769531 7.89144531 63.74289063 8.97039062 63.70703125 10.08203125 C63.76280909 12.96483699 63.76280909 12.96483699 65.25 14.84375 C67.31512095 16.20820491 68.73179018 16.48621231 71.1875 16.6875 C72.445625 16.790625 73.70375 16.89375 75 17 C75 17.33 75 17.66 75 18 C81.27 18.33 87.54 18.66 94 19 C94 19.33 94 19.66 94 20 C84.1 20 74.2 20 64 20 C64.495 22.475 64.495 22.475 65 25 C73.58 25 82.16 25 91 25 C89 30 89 30 88 31 C86.65984779 31.15582303 85.31241097 31.25044142 83.96484375 31.31640625 C83.15595703 31.35830078 82.34707031 31.40019531 81.51367188 31.44335938 C80.66353516 31.48267578 79.81339844 31.52199219 78.9375 31.5625 C78.08349609 31.60568359 77.22949219 31.64886719 76.34960938 31.69335938 C74.23327963 31.79976702 72.11666187 31.90041731 70 32 C70.66 32.99 71.32 33.98 72 35 C74.88595946 35.58481121 74.88595946 35.58481121 78.125 35.6875 C79.22070312 35.75324219 80.31640625 35.81898438 81.4453125 35.88671875 C82.28835937 35.92410156 83.13140625 35.96148437 84 36 C78.28208678 45.80213695 67.73291942 51.84430774 57 55 C42.24344145 58.14378856 27.39794825 56.92697757 14.23828125 49.42578125 C11.68300098 47.74704429 9.3477524 45.95712467 7 44 C6.23042969 43.37738281 5.46085937 42.75476563 4.66796875 42.11328125 C-2.46787129 35.73114152 -6.31310329 27.68982466 -10 19 C-10 18.34 -10 17.68 -10 17 C-6.535 16.505 -6.535 16.505 -3 16 C-2.01 10.72 -1.02 5.44 0 0 Z " fill="#DD0822" transform="translate(19,95)"/>
<path d="M0 0 C2.31 0 4.62 0 7 0 C7.66 4.95 8.32 9.9 9 15 C11.51449939 10.0577081 13.86740246 5.1182341 16 0 C18.31 0 20.62 0 23 0 C22.35550919 3.89605666 21.70917197 7.79180483 21.0625 11.6875 C20.88009766 12.79029297 20.69769531 13.89308594 20.50976562 15.02929688 C20.33251953 16.09599609 20.15527344 17.16269531 19.97265625 18.26171875 C19.72914429 19.73064575 19.72914429 19.73064575 19.48071289 21.22924805 C19.02956586 23.8295871 18.53025329 26.4147573 18 29 C16.35 29 14.7 29 13 29 C13 25.33333333 13 21.66666667 13 18 C11.68 21.63 10.36 25.26 9 29 C7.68 29 6.36 29 5 29 C4.34 25.37 3.68 21.74 3 18 C2.34 21.63 1.68 25.26 1 29 C-0.65 29 -2.3 29 -4 29 C-3.45089248 19.17286886 -1.81857774 9.6533309 0 0 Z " fill="#F6F3F6" transform="translate(16,82)"/>
<path d="M0 0 C1.65 0 3.3 0 5 0 C5 0.99 5 1.98 5 3 C6.32 3 7.64 3 9 3 C9.33 3.99 9.66 4.98 10 6 C10.495 5.505 10.99 5.01 11.5 4.5 C15.22645843 2.26412494 17.67911757 2.58848739 22 3 C23.734375 4.23046875 23.734375 4.23046875 25 6 C25.39500857 9.04946616 25.13430156 11.91106412 25 15 C21.04 15 17.08 15 13 15 C13.33 16.32 13.66 17.64 14 19 C19.08303686 19.11320856 19.08303686 19.11320856 24 18 C23.625 20.9375 23.625 20.9375 23 24 C19.52883773 25.73558114 15.79509584 25.45163663 12 25 C9.4375 23.625 9.4375 23.625 8 21 C7.49465419 16.45931927 7.55146677 12.34559969 9 8 C7.02 8 5.04 8 3 8 C3 11.96 3 15.92 3 20 C3.99 20.33 4.98 20.66 6 21 C6 22.32 6 23.64 6 25 C-0.15234375 25.09765625 -0.15234375 25.09765625 -2 25 C-3.6432459 23.3567541 -3.21071263 21.51557187 -3.25 19.25 C-3.21495272 12.58225565 -1.71295007 6.41336661 0 0 Z " fill="#F9F2F4" transform="translate(75,86)"/>
<path d="M0 0 C1.65 0 3.3 0 5 0 C3.83007154 9.69547093 2.55220235 19.3565301 1 29 C-1.33333333 29 -3.66666667 29 -6 29 C-6.969375 29.0825 -7.93875 29.165 -8.9375 29.25 C-12 29 -12 29 -13.69921875 27.2890625 C-15.97125853 23.29081833 -14.91274461 19.35097808 -14 15 C-12.6244469 11.65082723 -11.54344682 9.54344682 -9 7 C-5.375 6.875 -5.375 6.875 -2 7 C-1.34 4.69 -0.68 2.38 0 0 Z " fill="#FAF8F6" transform="translate(178,82)"/>
<path d="M0 0 C0.495 0.99 0.495 0.99 1 2 C0.67 2.66 0.34 3.32 0 4 C-0.14867166 6.12143022 -0.2213289 8.24855992 -0.25 10.375 C-0.28867188 12.08816406 -0.28867188 12.08816406 -0.328125 13.8359375 C0.02961102 17.28553486 0.48328968 18.64656619 3 21 C5.0316566 21.68850829 5.0316566 21.68850829 7.1875 21.75 C8.445625 21.8325 9.70375 21.915 11 22 C11 22.33 11 22.66 11 23 C9.56344146 23.08131463 8.1255517 23.13933559 6.6875 23.1875 C5.48673828 23.23970703 5.48673828 23.23970703 4.26171875 23.29296875 C1.52148416 22.93801608 0.70828921 22.10633718 -1 20 C-1.66 21.65 -2.32 23.3 -3 25 C-9.6 25 -16.2 25 -23 25 C-23 24.67 -23 24.34 -23 24 C-23.93972656 23.83564453 -23.93972656 23.83564453 -24.8984375 23.66796875 C-26.12433594 23.43013672 -26.12433594 23.43013672 -27.375 23.1875 C-28.18710938 23.03667969 -28.99921875 22.88585937 -29.8359375 22.73046875 C-32 22 -32 22 -34 19 C-34.1953125 16.08203125 -34.1953125 16.08203125 -34.125 12.8125 C-34.10695313 11.72582031 -34.08890625 10.63914062 -34.0703125 9.51953125 C-34.04710938 8.68808594 -34.02390625 7.85664062 -34 7 C-34.99 6.67 -35.98 6.34 -37 6 C-37.33 6.99 -37.66 7.98 -38 9 C-38 7.68 -38 6.36 -38 5 C-36.02 5 -34.04 5 -32 5 C-32.03480469 5.90363281 -32.06960937 6.80726562 -32.10546875 7.73828125 C-32.14607422 9.50751953 -32.14607422 9.50751953 -32.1875 11.3125 C-32.22230469 12.48425781 -32.25710937 13.65601562 -32.29296875 14.86328125 C-32.237748 17.92104152 -32.237748 17.92104152 -30.84375 19.90625 C-28.25484849 21.44203903 -26.29774611 21.29286163 -23.3125 21.1875 C-21.82169922 21.14689453 -21.82169922 21.14689453 -20.30078125 21.10546875 C-19.54152344 21.07066406 -18.78226563 21.03585938 -18 21 C-18 19.35 -18 17.7 -18 16 C-18.66 16.33 -19.32 16.66 -20 17 C-22.3329866 17.04022391 -24.66706666 17.04320247 -27 17 C-27.33 15.35 -27.66 13.7 -28 12 C-23.38 11.67 -18.76 11.34 -14 11 C-14 14.63 -14 18.26 -14 22 C-12.35 22 -10.7 22 -9 22 C-8.34 17.05 -7.68 12.1 -7 7 C-5.35 6.67 -3.7 6.34 -2 6 C-1.855625 5.195625 -1.71125 4.39125 -1.5625 3.5625 C-1 1 -1 1 0 0 Z " fill="#B42645" transform="translate(116,89)"/>
<path d="M0 0 C1.46566406 -0.03867188 1.46566406 -0.03867188 2.9609375 -0.078125 C5.625 0.25 5.625 0.25 7.48828125 1.4765625 C9.00652658 3.8452339 8.81094985 5.10707761 8.4375 7.875 C8.32148438 8.7515625 8.20546875 9.628125 8.0859375 10.53125 C7.4161036 14.48213468 6.56736319 18.35489883 5.625 22.25 C0.95833333 22.25 -3.70833333 22.25 -8.375 22.25 C-9.99015979 19.01968041 -10.09724686 15.73054203 -9.375 12.25 C-6.22911416 9.25391825 -4.3328476 8.32095167 0 8 C0.86625 8.0825 1.7325 8.165 2.625 8.25 C2.295 7.26 1.965 6.27 1.625 5.25 C-1.015 5.58 -3.655 5.91 -6.375 6.25 C-6.417721 4.58388095 -6.41563832 2.91617115 -6.375 1.25 C-4.64280072 -0.48219928 -2.35473192 0.03708239 0 0 Z " fill="#F8F6F4" transform="translate(141.375,88.75)"/>
<path d="M0 0 C1.95803507 -0.05389087 3.91648909 -0.09274217 5.875 -0.125 C7.51082031 -0.15980469 7.51082031 -0.15980469 9.1796875 -0.1953125 C12 0 12 0 14 2 C14.01171875 4.79296875 14.01171875 4.79296875 13.6875 8.1875 C13.57921875 9.35023437 13.4709375 10.51296875 13.359375 11.7109375 C12.98262769 15.15899436 12.55725502 18.57686203 12 22 C9.70858714 22.05384521 7.41681812 22.09272087 5.125 22.125 C3.84882812 22.14820312 2.57265625 22.17140625 1.2578125 22.1953125 C-2 22 -2 22 -4 20 C-4.5 16.6875 -4.5 16.6875 -4 13 C-0.60230975 9.10508679 0.69140585 8.10553179 5.875 7.6875 C6.90625 7.790625 7.9375 7.89375 9 8 C8.67 7.01 8.34 6.02 8 5 C5.36 5 2.72 5 0 5 C0 3.35 0 1.7 0 0 Z " fill="#F9F3F5" transform="translate(42,89)"/>
<path d="M0 0 C1.33804688 0.04060547 1.33804688 0.04060547 2.703125 0.08203125 C3.37859375 0.11683594 4.0540625 0.15164062 4.75 0.1875 C5.375 2 5.375 2 5.75 4.1875 C4.76 5.6725 4.76 5.6725 3.75 7.1875 C1.44 6.8575 -0.87 6.5275 -3.25 6.1875 C-6.3454672 9.55178409 -6.60980696 11.86742437 -6.5 16.375 C-6.48453125 17.44105469 -6.4690625 18.50710937 -6.453125 19.60546875 C-6.53675018 22.11724082 -6.53675018 22.11724082 -5.25 23.1875 C-1.61805359 23.37899081 -1.61805359 23.37899081 1.75 22.1875 C1.42 24.4975 1.09 26.8075 0.75 29.1875 C-0.83093717 29.3232675 -2.41526952 29.41984745 -4 29.5 C-4.88171875 29.55800781 -5.7634375 29.61601563 -6.671875 29.67578125 C-9.25 29.1875 -9.25 29.1875 -11.546875 27.0625 C-14.53287565 22.02191175 -13.93473324 16.86393856 -13.25 11.1875 C-11.13905434 4.24076555 -7.69256733 -0.30365397 0 0 Z " fill="#FBF7F4" transform="translate(128.25,81.8125)"/>
<path d="M0 0 C0 1.65 0 3.3 0 5 C-1.98 5.33 -3.96 5.66 -6 6 C-5.33131686 9.11332248 -5.33131686 9.11332248 -2.9375 10.1875 C-1 12 -1 12 -0.6328125 13.86328125 C-0.45736012 19.19508418 -0.45736012 19.19508418 -2.171875 21.73828125 C-4.73791052 23.5092844 -6.60471562 23.29630415 -9.6875 23.1875 C-11.17830078 23.14689453 -11.17830078 23.14689453 -12.69921875 23.10546875 C-13.45847656 23.07066406 -14.21773437 23.03585938 -15 23 C-15 21.35 -15 19.7 -15 18 C-11.04 17.505 -11.04 17.505 -7 17 C-7.804375 16.360625 -8.60875 15.72125 -9.4375 15.0625 C-12 13 -12 13 -13 12 C-13.57392389 4.99812851 -13.57392389 4.99812851 -11.5625 1.5 C-7.78106272 -0.71352426 -4.2792407 -0.32917236 0 0 Z " fill="#FAF1F3" transform="translate(71,88)"/>
<path d="M0 0 C1.65 0 3.3 0 5 0 C5 0.99 5 1.98 5 3 C6.32 3 7.64 3 9 3 C9 4.32 9 5.64 9 7 C7.35 7.33 5.7 7.66 4 8 C3.67 11.96 3.34 15.92 3 20 C3.99 20.33 4.98 20.66 6 21 C6 22.32 6 23.64 6 25 C-0.15234375 25.09765625 -0.15234375 25.09765625 -2 25 C-3.6432459 23.3567541 -3.21071263 21.51557187 -3.25 19.25 C-3.21495272 12.58225565 -1.71295007 6.41336661 0 0 Z " fill="#FAF7F8" transform="translate(75,86)"/>
<path d="M0 0 C3.3 0 6.6 0 10 0 C9.67 1.98 9.34 3.96 9 6 C7.68 6.33 6.36 6.66 5 7 C4.01 11.95 3.02 16.9 2 22 C0.35 22 -1.3 22 -3 22 C-2.51060037 14.5044583 -1.61855599 7.33745381 0 0 Z " fill="#FAF5F1" transform="translate(154,89)"/>
<path d="M0 0 C1.37478516 0.01740234 1.37478516 0.01740234 2.77734375 0.03515625 C3.69644531 0.04417969 4.61554688 0.05320312 5.5625 0.0625 C6.27277344 0.07410156 6.98304687 0.08570312 7.71484375 0.09765625 C6.96484375 3.03515625 6.96484375 3.03515625 5.71484375 6.09765625 C3.63671875 6.7890625 3.63671875 6.7890625 1.71484375 7.09765625 C1.58207031 8.01289062 1.44929688 8.928125 1.3125 9.87109375 C1.13589844 11.05960938 0.95929688 12.248125 0.77734375 13.47265625 C0.60332031 14.65601562 0.42929688 15.839375 0.25 17.05859375 C-0.28515625 20.09765625 -0.28515625 20.09765625 -1.28515625 22.09765625 C-2.93515625 22.09765625 -4.58515625 22.09765625 -6.28515625 22.09765625 C-5.81275574 18.61753543 -5.33110765 15.13875771 -4.84765625 11.66015625 C-4.6455957 10.17032227 -4.6455957 10.17032227 -4.43945312 8.65039062 C-4.30732422 7.70615234 -4.17519531 6.76191406 -4.0390625 5.7890625 C-3.91861572 4.91451416 -3.79816895 4.03996582 -3.67407227 3.13891602 C-3.12781464 0.27183502 -2.9506041 0.12609419 0 0 Z " fill="#F6F1F3" transform="translate(108.28515625,88.90234375)"/>
<path d="M0 0 C0.99081765 3.09717126 0.95127938 4.95467667 0.0625 8.0625 C-1.26114678 13.39262125 -1.18373413 18.53901332 -1 24 C0.98 24.33 2.96 24.66 5 25 C5 25.33 5 25.66 5 26 C1.625 26.1875 1.625 26.1875 -2 26 C-4.07356975 22.88964537 -4.19932787 22.09466178 -4.3125 18.5625 C-4.62987315 14.81505548 -4.75283373 14.24716627 -7.5625 11.4375 C-8.366875 10.963125 -9.17125 10.48875 -10 10 C-9.67 9.01 -9.34 8.02 -9 7 C-7.02 7 -5.04 7 -3 7 C-3 5.68 -3 4.36 -3 3 C-1.5 1.25 -1.5 1.25 0 0 Z " fill="#AE3556" transform="translate(74,86)"/>
<path d="M0 0 C0.33 0 0.66 0 1 0 C1.04125 1.0725 1.0825 2.145 1.125 3.25 C1.64608309 7.23561704 1.64608309 7.23561704 5.0625 9.4375 C6.031875 9.953125 7.00125 10.46875 8 11 C7.67 11.66 7.34 12.32 7 13 C4.36 13 1.72 13 -1 13 C-1 14.65 -1 16.3 -1 18 C1.97 18 4.94 18 8 18 C8 18.33 8 18.66 8 19 C4.37 19 0.74 19 -3 19 C-3.23063489 12.77285803 -2.61194704 7.03597685 -1 1 C-0.67 0.67 -0.34 0.34 0 0 Z " fill="#B42848" transform="translate(57,93)"/>
<path d="M0 0 C0.99 0.33 1.98 0.66 3 1 C2.85962479 2.81293089 2.71255111 4.6253443 2.5625 6.4375 C2.48128906 7.44683594 2.40007812 8.45617187 2.31640625 9.49609375 C2 12 2 12 1 13 C-0.66617115 13.04063832 -2.33388095 13.042721 -4 13 C-4.63019694 4.80743982 -4.63019694 4.80743982 -2 1.4375 C-1.34 0.963125 -0.68 0.48875 0 0 Z " fill="#CB7F32" transform="translate(173,93)"/>
<path d="M0 0 C1.32 0.33 2.64 0.66 4 1 C3.67 5.29 3.34 9.58 3 14 C2.67 13.34 2.34 12.68 2 12 C-0.02463255 11.34786708 -0.02463255 11.34786708 -2 11 C-1.125 3.375 -1.125 3.375 0 0 Z " fill="#D81631" transform="translate(79,95)"/>
<path d="M0 0 C1.32 0 2.64 0 4 0 C4 1.65 4 3.3 4 5 C2.35 5.33 0.7 5.66 -1 6 C-1.625 4.125 -1.625 4.125 -2 2 C-1.34 1.34 -0.68 0.68 0 0 Z " fill="#C67D33" transform="translate(139,101)"/>
<path d="M0 0 C1.2065625 0.0309375 1.2065625 0.0309375 2.4375 0.0625 C1.7775 2.0425 1.1175 4.0225 0.4375 6.0625 C-0.8825 6.0625 -2.2025 6.0625 -3.5625 6.0625 C-3.605221 4.39638095 -3.60313832 2.72867115 -3.5625 1.0625 C-2.5625 0.0625 -2.5625 0.0625 0 0 Z " fill="#BE2543" transform="translate(47.5625,100.9375)"/>
<path d="M0 0 C0.33 0 0.66 0 1 0 C0.67 3.96 0.34 7.92 0 12 C1.32 12.33 2.64 12.66 4 13 C2.02 13 0.04 13 -2 13 C-1.979375 12.0925 -1.95875 11.185 -1.9375 10.25 C-1.9889755 7.57327412 -2.2215017 5.53011948 -3 3 C-2.01 3.33 -1.02 3.66 0 4 C0 2.68 0 1.36 0 0 Z " fill="#876655" transform="translate(151,99)"/>
<path d="M0 0 C2.97 0 5.94 0 9 0 C9.33 0.66 9.66 1.32 10 2 C7.04335481 3.4783226 4.25770263 3.06032783 1 3 C0.67 2.01 0.34 1.02 0 0 Z " fill="#E20C26" transform="translate(88,103)"/>
<path d="M0 0 C0.33 0 0.66 0 1 0 C1.103125 1.093125 1.20625 2.18625 1.3125 3.3125 C1.97307727 6.85559629 2.2027092 7.93243723 5 10 C2.69 9.67 0.38 9.34 -2 9 C-1.125 1.125 -1.125 1.125 0 0 Z " fill="#824169" transform="translate(57,93)"/>
<path d="M0 0 C1.07310858 3.27185553 0.89263102 5.42947592 0.0625 8.75 C-0.22947266 9.94882813 -0.22947266 9.94882813 -0.52734375 11.171875 C-0.68332031 11.77515625 -0.83929688 12.3784375 -1 13 C-1.33 13 -1.66 13 -2 13 C-2.2493357 11.39884424 -2.47378648 9.79379841 -2.6875 8.1875 C-2.81511719 7.29417969 -2.94273438 6.40085937 -3.07421875 5.48046875 C-3 3 -3 3 -1.51953125 1.17578125 C-1.01808594 0.78777344 -0.51664062 0.39976563 0 0 Z " fill="#92385E" transform="translate(74,86)"/>
<path d="M0 0 C1.65 0.33 3.3 0.66 5 1 C5 1.99 5 2.98 5 4 C2.69 4 0.38 4 -2 4 C-1.34 2.68 -0.68 1.36 0 0 Z " fill="#AF1E40" transform="translate(90,93)"/>
</svg>
